<?xml version="1.0" encoding="UTF-8" standalone="no"?>
<!-- Generator: Adobe Illustrator 19.1.0, SVG Export Plug-In . SVG Version: 6.00 Build 0)  -->

<svg
   version="1.1"
   id="Layer_1"
   x="0px"
   y="0px"
   viewBox="0 0 250 250"
   style="enable-background:new 0 0 250 250;"
   xml:space="preserve"
   sodipodi:docname="angularmaterial.svg"
   inkscape:version="1.2 (1:1.2.1+202207142221+cd75a1ee6d)"
   xmlns:inkscape="http://www.inkscape.org/namespaces/inkscape"
   xmlns:sodipodi="http://sodipodi.sourceforge.net/DTD/sodipodi-0.dtd"
   xmlns="http://www.w3.org/2000/svg"
   xmlns:svg="http://www.w3.org/2000/svg"><defs
   id="defs15" /><sodipodi:namedview
   id="namedview13"
   pagecolor="#ffffff"
   bordercolor="#666666"
   borderopacity="1.0"
   inkscape:showpageshadow="2"
   inkscape:pageopacity="0.0"
   inkscape:pagecheckerboard="0"
   inkscape:deskcolor="#d1d1d1"
   showgrid="false"
   inkscape:zoom="3.408"
   inkscape:cx="125"
   inkscape:cy="125"
   inkscape:window-width="1920"
   inkscape:window-height="1027"
   inkscape:window-x="0"
   inkscape:window-y="25"
   inkscape:window-maximized="1"
   inkscape:current-layer="g10" />
<style
   type="text/css"
   id="style2">
	.st0{fill:#DD0031;}
	.st1{fill:#C3002F;}
	.st2{fill:#FFFFFF;}
</style>
<g
   id="g10"
   style="fill:#9d93ac">
	<polygon
   class="st0"
   points="125,30 125,30 125,30 31.9,63.2 46.1,186.3 125,230 125,230 125,230 203.9,186.3 218.1,63.2  "
   id="polygon4"
   style="fill:#9d93ac" />
	<polygon
   class="st1"
   points="125,30 125,52.2 125,52.1 125,153.4 125,153.4 125,230 125,230 203.9,186.3 218.1,63.2 125,30  "
   id="polygon6"
   style="fill:#7c6f91" />
	<path
   class="st2"
   d="M125,52.1L66.8,182.6h0h21.7h0l11.7-29.2h49.4l11.7,29.2h0h21.7h0L125,52.1L125,52.1L125,52.1L125,52.1   L125,52.1z M142,135.4H108l17-40.9L142,135.4z"
   id="path8"
   style="fill:#9d93ac" />
</g>
<path
   style="fill:#5a2ca0;stroke:#5a2ca0;stroke-width:2.21803;stroke-linecap:round;stroke-linejoin:round;stroke-opacity:1"
   d="m 67.427556,181.53951 c 0.194774,-0.458 13.228254,-29.70311 28.963289,-64.98913 L 125,52.393969 l 0.4757,1.091748 c 0.26163,0.600461 13.18447,29.678896 28.71741,64.618743 15.53294,34.93985 28.30616,63.69205 28.38492,63.89378 0.11297,0.28933 -2.11295,0.36678 -10.54138,0.36678 h -10.68459 l -5.80756,-14.52464 -5.80755,-14.52465 -24.83913,0.004 -24.83913,0.004 -5.764385,14.44752 -5.76438,14.44753 -10.728251,0.077 -10.728251,0.077 z m 74.282454,-47.2232 c -0.25485,-0.60519 -4.03237,-9.68309 -8.39449,-20.17312 -4.36212,-10.49002 -8.02958,-19.24981 -8.1499,-19.466195 -0.18967,-0.341088 -4.735,10.325835 -15.453,36.264905 l -1.84896,4.47477 h 17.15485 17.15486 z"
   id="path936" /></svg>
